<svg width="1107" height="438" viewBox="0 0 1107 438" fill="none" xmlns="http://www.w3.org/2000/svg">
<rect width="1107" height="475" fill="url(#paint0_radial_44_574)"/>
<rect x="0.5" y="0.5" width="79" height="79" fill="white" stroke="#FDDD6D"/>
<rect x="79.5" y="0.5" width="79" height="79" fill="white" stroke="#FDDD6D"/>
<rect x="158.5" y="0.5" width="79" height="79" fill="white" stroke="#FDDD6D"/>
<rect x="237.5" y="0.5" width="79" height="79" fill="white" stroke="#FDDD6D"/>
<rect x="316.5" y="0.5" width="79" height="79" fill="white" stroke="#FDDD6D"/>
<rect x="395.5" y="0.5" width="79" height="79" fill="white" stroke="#FDDD6D"/>
<rect x="474.5" y="0.5" width="79" height="79" fill="white" stroke="#FDDD6D"/>
<rect x="553.5" y="0.5" width="79" height="79" fill="white" stroke="#FDDD6D"/>
<rect x="632.5" y="0.5" width="79" height="79" fill="white" stroke="#FDDD6D"/>
<rect x="711.5" y="0.5" width="79" height="79" fill="white" stroke="#FDDD6D"/>
<rect x="790.5" y="0.5" width="79" height="79" fill="white" stroke="#FDDD6D"/>
<rect x="869.5" y="0.5" width="79" height="79" fill="white" stroke="#FDDD6D"/>
<rect x="948.5" y="0.5" width="79" height="79" fill="white" stroke="#FDDD6D"/>
<rect x="1027.5" y="0.5" width="79" height="79" fill="white" stroke="#FDDD6D"/>
<rect x="0.5" y="79.5" width="79" height="79" fill="white" stroke="#FDDD6D"/>
<rect x="79.5" y="79.5" width="79" height="79" fill="white" stroke="#FDDD6D"/>
<rect x="158.5" y="79.5" width="79" height="79" fill="white" stroke="#FDDD6D"/>
<rect x="237.5" y="79.5" width="79" height="79" fill="white" stroke="#FDDD6D"/>
<rect x="316.5" y="79.5" width="79" height="79" fill="white" stroke="#FDDD6D"/>
<rect x="395.5" y="79.5" width="79" height="79" fill="white" stroke="#FDDD6D"/>
<rect x="474.5" y="79.5" width="79" height="79" fill="white" stroke="#FDDD6D"/>
<rect x="553.5" y="79.5" width="79" height="79" fill="white" stroke="#FDDD6D"/>
<rect x="632.5" y="79.5" width="79" height="79" fill="white" stroke="#FDDD6D"/>
<rect x="711.5" y="79.5" width="79" height="79" fill="white" stroke="#FDDD6D"/>
<rect x="790.5" y="79.5" width="79" height="79" fill="white" stroke="#FDDD6D"/>
<rect x="869.5" y="79.5" width="79" height="79" fill="white" stroke="#FDDD6D"/>
<rect x="948.5" y="79.5" width="79" height="79" fill="white" stroke="#FDDD6D"/>
<rect x="1027.5" y="79.5" width="79" height="79" fill="white" stroke="#FDDD6D"/>
<rect x="0.5" y="158.5" width="79" height="79" fill="white" stroke="#FDDD6D"/>
<rect x="79.5" y="158.5" width="79" height="79" fill="white" stroke="#FDDD6D"/>
<rect x="158.5" y="158.5" width="79" height="79" fill="white" stroke="#FDDD6D"/>
<rect x="237.5" y="158.5" width="79" height="79" fill="white" stroke="#FDDD6D"/>
<rect x="316.5" y="158.5" width="79" height="79" fill="white" stroke="#FDDD6D"/>
<rect x="395.5" y="158.5" width="79" height="79" fill="white" stroke="#FDDD6D"/>
<rect x="474.5" y="158.5" width="79" height="79" fill="white" stroke="#FDDD6D"/>
<rect x="553.5" y="158.5" width="79" height="79" fill="white" stroke="#FDDD6D"/>
<rect x="632.5" y="158.5" width="79" height="79" fill="white" stroke="#FDDD6D"/>
<rect x="711.5" y="158.5" width="79" height="79" fill="white" stroke="#FDDD6D"/>
<rect x="790.5" y="158.5" width="79" height="79" fill="white" stroke="#FDDD6D"/>
<rect x="869.5" y="158.5" width="79" height="79" fill="white" stroke="#FDDD6D"/>
<rect x="948.5" y="158.5" width="79" height="79" fill="white" stroke="#FDDD6D"/>
<rect x="1027.5" y="158.5" width="79" height="79" fill="white" stroke="#FDDD6D"/>
<rect x="0.5" y="237.5" width="79" height="79" fill="white" stroke="#FDDD6D"/>
<rect x="79.5" y="237.5" width="79" height="79" fill="white" stroke="#FDDD6D"/>
<rect x="158.5" y="237.5" width="79" height="79" fill="white" stroke="#FDDD6D"/>
<rect x="237.5" y="237.5" width="79" height="79" fill="white" stroke="#FDDD6D"/>
<rect x="316.5" y="237.5" width="79" height="79" fill="white" stroke="#FDDD6D"/>
<rect x="395.5" y="237.5" width="79" height="79" fill="white" stroke="#FDDD6D"/>
<rect x="474.5" y="237.5" width="79" height="79" fill="white" stroke="#FDDD6D"/>
<rect x="553.5" y="237.5" width="79" height="79" fill="white" stroke="#FDDD6D"/>
<rect x="632.5" y="237.5" width="79" height="79" fill="white" stroke="#FDDD6D"/>
<rect x="711.5" y="237.5" width="79" height="79" fill="white" stroke="#FDDD6D"/>
<rect x="790.5" y="237.5" width="79" height="79" fill="white" stroke="#FDDD6D"/>
<rect x="869.5" y="237.5" width="79" height="79" fill="white" stroke="#FDDD6D"/>
<rect x="948.5" y="237.5" width="79" height="79" fill="white" stroke="#FDDD6D"/>
<rect x="1027.5" y="237.5" width="79" height="79" fill="white" stroke="#FDDD6D"/>
<rect x="0.5" y="316.5" width="79" height="79" fill="white" stroke="#FDDD6D"/>
<rect x="79.5" y="316.5" width="79" height="79" fill="white" stroke="#FDDD6D"/>
<rect x="158.5" y="316.5" width="79" height="79" fill="white" stroke="#FDDD6D"/>
<rect x="237.5" y="316.5" width="79" height="79" fill="white" stroke="#FDDD6D"/>
<rect x="316.5" y="316.5" width="79" height="79" fill="white" stroke="#FDDD6D"/>
<rect x="395.5" y="316.5" width="79" height="79" fill="white" stroke="#FDDD6D"/>
<rect x="474.5" y="316.5" width="79" height="79" fill="white" stroke="#FDDD6D"/>
<rect x="553.5" y="316.5" width="79" height="79" fill="white" stroke="#FDDD6D"/>
<rect x="632.5" y="316.5" width="79" height="79" fill="white" stroke="#FDDD6D"/>
<rect x="711.5" y="316.5" width="79" height="79" fill="white" stroke="#FDDD6D"/>
<rect x="790.5" y="316.5" width="79" height="79" fill="white" stroke="#FDDD6D"/>
<rect x="869.5" y="316.5" width="79" height="79" fill="white" stroke="#FDDD6D"/>
<rect x="948.5" y="316.5" width="79" height="79" fill="white" stroke="#FDDD6D"/>
<rect x="1027.5" y="316.5" width="79" height="79" fill="white" stroke="#FDDD6D"/>
<rect x="0.5" y="395.5" width="79" height="79" fill="white" stroke="#FDDD6D"/>
<rect x="79.5" y="395.5" width="79" height="79" fill="white" stroke="#FDDD6D"/>
<rect x="158.5" y="395.5" width="79" height="79" fill="white" stroke="#FDDD6D"/>
<rect x="237.5" y="395.5" width="79" height="79" fill="white" stroke="#FDDD6D"/>
<rect x="316.5" y="395.5" width="79" height="79" fill="white" stroke="#FDDD6D"/>
<rect x="395.5" y="395.5" width="79" height="79" fill="white" stroke="#FDDD6D"/>
<rect x="474.5" y="395.5" width="79" height="79" fill="white" stroke="#FDDD6D"/>
<rect x="553.5" y="395.5" width="79" height="79" fill="white" stroke="#FDDD6D"/>
<rect x="632.5" y="395.5" width="79" height="79" fill="white" stroke="#FDDD6D"/>
<rect x="711.5" y="395.5" width="79" height="79" fill="white" stroke="#FDDD6D"/>
<rect x="790.5" y="395.5" width="79" height="79" fill="white" stroke="#FDDD6D"/>
<rect x="869.5" y="395.5" width="79" height="79" fill="white" stroke="#FDDD6D"/>
<rect x="948.5" y="395.5" width="79" height="79" fill="white" stroke="#FDDD6D"/>
<rect x="1027.5" y="395.5" width="79" height="79" fill="white" stroke="#FDDD6D"/>
<defs>
<radialGradient id="paint0_radial_44_574" cx="0" cy="0" r="1" gradientUnits="userSpaceOnUse" gradientTransform="translate(553.5 237.5) rotate(90.0928) scale(308.87 719.831)">
<stop stop-color="white"/>
<stop offset="0.0001" stop-color="white" stop-opacity="0"/>
<stop offset="1" stop-color="#F3F3F3"/>
</radialGradient>
</defs>
</svg>
